<svg xmlns="http://www.w3.org/2000/svg" viewBox="0 0 100 100" width="100%" height="100%">
  <defs>
    <linearGradient id="bodyGrad" x1="0%" y1="0%" x2="100%" y2="100%">
      <stop offset="0%" stop-color="#ff0844" />
      <stop offset="100%" stop-color="#ffb199" />
    </linearGradient>
    <filter id="glow" x="-10%" y="-10%" width="120%" height="120%">
      <feDropShadow dx="0" dy="4" stdDeviation="4" flood-color="#ff0844" flood-opacity="0.4"/>
    </filter>
  </defs>
  <!-- Body -->
  <rect x="15" y="15" width="70" height="70" rx="35" fill="url(#bodyGrad)" filter="url(#glow)" />
  <!-- Face Screen -->
  <rect x="25" y="25" width="50" height="40" rx="15" fill="#1c1e24" />
  <!-- Star Eyes -->
  <!-- Left Star -->
  <path d="M 38 35 L 40 40 L 45 41 L 41 45 L 42 50 L 38 47 L 34 50 L 35 45 L 31 41 L 36 40 Z" fill="#fff" />
  <!-- Right Star -->
  <path d="M 62 35 L 64 40 L 69 41 L 65 45 L 66 50 L 62 47 L 58 50 L 59 45 L 55 41 L 60 40 Z" fill="#fff" />
  <!-- Open Happy Mouth -->
  <path d="M 45 53 Q 50 60 55 53 Z" fill="#ff4d4d" stroke="#fff" stroke-width="1.5" />
  <!-- Cute Cheeks -->
  <circle cx="28" cy="51" r="4" fill="#fff" opacity="0.4" />
  <circle cx="72" cy="51" r="4" fill="#fff" opacity="0.4" />
</svg>
